<mxfile host="app.diagrams.net" modified="2024-07-08T10:06:09.542Z" agent="Mozilla/5.0 (Windows NT 10.0; Win64; x64) AppleWebKit/537.36 (KHTML, like Gecko) Chrome/126.0.0.0 Safari/537.36" etag="30q8KnuN2VtiPPXA15u0" version="24.6.4" type="github">
  <diagram name="Page-1" id="S7uJ1dSH_nYvpb2p5YU8">
    <mxGraphModel dx="2004" dy="597" grid="1" gridSize="10" guides="1" tooltips="1" connect="1" arrows="1" fold="1" page="1" pageScale="1" pageWidth="850" pageHeight="1100" math="0" shadow="0">
      <root>
        <mxCell id="0" />
        <mxCell id="1" parent="0" />
        <mxCell id="KPk_gnrOA52wNbEbeV2v-20" style="edgeStyle=orthogonalEdgeStyle;rounded=0;orthogonalLoop=1;jettySize=auto;html=1;entryX=0.5;entryY=0;entryDx=0;entryDy=0;" edge="1" parent="1" source="KPk_gnrOA52wNbEbeV2v-1" target="KPk_gnrOA52wNbEbeV2v-2">
          <mxGeometry relative="1" as="geometry" />
        </mxCell>
        <mxCell id="KPk_gnrOA52wNbEbeV2v-30" style="edgeStyle=orthogonalEdgeStyle;rounded=0;orthogonalLoop=1;jettySize=auto;html=1;" edge="1" parent="1" source="KPk_gnrOA52wNbEbeV2v-1" target="KPk_gnrOA52wNbEbeV2v-21">
          <mxGeometry relative="1" as="geometry" />
        </mxCell>
        <mxCell id="KPk_gnrOA52wNbEbeV2v-34" style="edgeStyle=orthogonalEdgeStyle;rounded=0;orthogonalLoop=1;jettySize=auto;html=1;" edge="1" parent="1" source="KPk_gnrOA52wNbEbeV2v-1" target="KPk_gnrOA52wNbEbeV2v-31">
          <mxGeometry relative="1" as="geometry" />
        </mxCell>
        <mxCell id="KPk_gnrOA52wNbEbeV2v-1" value="user" style="rounded=1;whiteSpace=wrap;html=1;" vertex="1" parent="1">
          <mxGeometry x="320" y="20" width="80" height="40" as="geometry" />
        </mxCell>
        <mxCell id="KPk_gnrOA52wNbEbeV2v-9" style="edgeStyle=orthogonalEdgeStyle;rounded=0;orthogonalLoop=1;jettySize=auto;html=1;entryX=0;entryY=0.5;entryDx=0;entryDy=0;" edge="1" parent="1" source="KPk_gnrOA52wNbEbeV2v-2" target="KPk_gnrOA52wNbEbeV2v-4">
          <mxGeometry relative="1" as="geometry" />
        </mxCell>
        <mxCell id="KPk_gnrOA52wNbEbeV2v-10" style="edgeStyle=orthogonalEdgeStyle;rounded=0;orthogonalLoop=1;jettySize=auto;html=1;entryX=0;entryY=0.5;entryDx=0;entryDy=0;" edge="1" parent="1" source="KPk_gnrOA52wNbEbeV2v-2" target="KPk_gnrOA52wNbEbeV2v-6">
          <mxGeometry relative="1" as="geometry" />
        </mxCell>
        <mxCell id="KPk_gnrOA52wNbEbeV2v-11" style="edgeStyle=orthogonalEdgeStyle;rounded=0;orthogonalLoop=1;jettySize=auto;html=1;entryX=0;entryY=0.5;entryDx=0;entryDy=0;" edge="1" parent="1" source="KPk_gnrOA52wNbEbeV2v-2" target="KPk_gnrOA52wNbEbeV2v-5">
          <mxGeometry relative="1" as="geometry" />
        </mxCell>
        <mxCell id="KPk_gnrOA52wNbEbeV2v-33" style="edgeStyle=orthogonalEdgeStyle;rounded=0;orthogonalLoop=1;jettySize=auto;html=1;entryX=0;entryY=0.5;entryDx=0;entryDy=0;" edge="1" parent="1" source="KPk_gnrOA52wNbEbeV2v-2" target="KPk_gnrOA52wNbEbeV2v-32">
          <mxGeometry relative="1" as="geometry" />
        </mxCell>
        <mxCell id="KPk_gnrOA52wNbEbeV2v-2" value="image" style="rounded=0;whiteSpace=wrap;html=1;" vertex="1" parent="1">
          <mxGeometry x="-80" y="110" width="120" height="60" as="geometry" />
        </mxCell>
        <mxCell id="KPk_gnrOA52wNbEbeV2v-4" value="upload" style="rounded=0;whiteSpace=wrap;html=1;" vertex="1" parent="1">
          <mxGeometry y="210" width="100" height="50" as="geometry" />
        </mxCell>
        <mxCell id="KPk_gnrOA52wNbEbeV2v-5" value="remove" style="rounded=0;whiteSpace=wrap;html=1;" vertex="1" parent="1">
          <mxGeometry y="330" width="100" height="50" as="geometry" />
        </mxCell>
        <mxCell id="KPk_gnrOA52wNbEbeV2v-6" value="upload archive" style="rounded=0;whiteSpace=wrap;html=1;" vertex="1" parent="1">
          <mxGeometry y="270" width="100" height="50" as="geometry" />
        </mxCell>
        <mxCell id="KPk_gnrOA52wNbEbeV2v-37" style="edgeStyle=orthogonalEdgeStyle;rounded=0;orthogonalLoop=1;jettySize=auto;html=1;entryX=1;entryY=0.5;entryDx=0;entryDy=0;" edge="1" parent="1" source="KPk_gnrOA52wNbEbeV2v-7" target="KPk_gnrOA52wNbEbeV2v-32">
          <mxGeometry relative="1" as="geometry">
            <Array as="points">
              <mxPoint x="290" y="415" />
            </Array>
          </mxGeometry>
        </mxCell>
        <mxCell id="KPk_gnrOA52wNbEbeV2v-7" value="bin check" style="rounded=0;whiteSpace=wrap;html=1;" vertex="1" parent="1">
          <mxGeometry x="240" y="230" width="100" height="50" as="geometry" />
        </mxCell>
        <mxCell id="KPk_gnrOA52wNbEbeV2v-39" style="edgeStyle=orthogonalEdgeStyle;rounded=0;orthogonalLoop=1;jettySize=auto;html=1;entryX=1;entryY=0.5;entryDx=0;entryDy=0;" edge="1" parent="1" source="KPk_gnrOA52wNbEbeV2v-12" target="KPk_gnrOA52wNbEbeV2v-32">
          <mxGeometry relative="1" as="geometry">
            <mxPoint x="440" y="420" as="targetPoint" />
            <Array as="points">
              <mxPoint x="440" y="415" />
            </Array>
          </mxGeometry>
        </mxCell>
        <mxCell id="KPk_gnrOA52wNbEbeV2v-12" value="scan" style="rounded=0;whiteSpace=wrap;html=1;" vertex="1" parent="1">
          <mxGeometry x="390" y="230" width="100" height="50" as="geometry" />
        </mxCell>
        <mxCell id="KPk_gnrOA52wNbEbeV2v-25" style="edgeStyle=orthogonalEdgeStyle;rounded=0;orthogonalLoop=1;jettySize=auto;html=1;entryX=0;entryY=0.5;entryDx=0;entryDy=0;" edge="1" parent="1" source="KPk_gnrOA52wNbEbeV2v-21" target="KPk_gnrOA52wNbEbeV2v-22">
          <mxGeometry relative="1" as="geometry" />
        </mxCell>
        <mxCell id="KPk_gnrOA52wNbEbeV2v-21" value="scans" style="rounded=0;whiteSpace=wrap;html=1;" vertex="1" parent="1">
          <mxGeometry x="520" y="100" width="120" height="60" as="geometry" />
        </mxCell>
        <mxCell id="KPk_gnrOA52wNbEbeV2v-27" style="edgeStyle=orthogonalEdgeStyle;rounded=0;orthogonalLoop=1;jettySize=auto;html=1;entryX=0;entryY=0.5;entryDx=0;entryDy=0;" edge="1" parent="1" source="KPk_gnrOA52wNbEbeV2v-22" target="KPk_gnrOA52wNbEbeV2v-24">
          <mxGeometry relative="1" as="geometry" />
        </mxCell>
        <mxCell id="KPk_gnrOA52wNbEbeV2v-29" style="edgeStyle=orthogonalEdgeStyle;rounded=0;orthogonalLoop=1;jettySize=auto;html=1;entryX=0;entryY=0.5;entryDx=0;entryDy=0;" edge="1" parent="1" source="KPk_gnrOA52wNbEbeV2v-22" target="KPk_gnrOA52wNbEbeV2v-23">
          <mxGeometry relative="1" as="geometry" />
        </mxCell>
        <mxCell id="KPk_gnrOA52wNbEbeV2v-22" value="get_scans" style="rounded=0;whiteSpace=wrap;html=1;" vertex="1" parent="1">
          <mxGeometry x="600" y="190" width="100" height="50" as="geometry" />
        </mxCell>
        <mxCell id="KPk_gnrOA52wNbEbeV2v-23" value="by image" style="rounded=0;whiteSpace=wrap;html=1;" vertex="1" parent="1">
          <mxGeometry x="750" y="130" width="100" height="50" as="geometry" />
        </mxCell>
        <mxCell id="KPk_gnrOA52wNbEbeV2v-24" value="by user" style="rounded=0;whiteSpace=wrap;html=1;" vertex="1" parent="1">
          <mxGeometry x="750" y="220" width="100" height="50" as="geometry" />
        </mxCell>
        <mxCell id="KPk_gnrOA52wNbEbeV2v-35" style="edgeStyle=orthogonalEdgeStyle;rounded=0;orthogonalLoop=1;jettySize=auto;html=1;" edge="1" parent="1" source="KPk_gnrOA52wNbEbeV2v-31" target="KPk_gnrOA52wNbEbeV2v-7">
          <mxGeometry relative="1" as="geometry" />
        </mxCell>
        <mxCell id="KPk_gnrOA52wNbEbeV2v-36" style="edgeStyle=orthogonalEdgeStyle;rounded=0;orthogonalLoop=1;jettySize=auto;html=1;" edge="1" parent="1" source="KPk_gnrOA52wNbEbeV2v-31" target="KPk_gnrOA52wNbEbeV2v-12">
          <mxGeometry relative="1" as="geometry" />
        </mxCell>
        <mxCell id="KPk_gnrOA52wNbEbeV2v-31" value="ML" style="rounded=0;whiteSpace=wrap;html=1;" vertex="1" parent="1">
          <mxGeometry x="300" y="125" width="120" height="60" as="geometry" />
        </mxCell>
        <mxCell id="KPk_gnrOA52wNbEbeV2v-32" value="get_image" style="rounded=0;whiteSpace=wrap;html=1;" vertex="1" parent="1">
          <mxGeometry y="390" width="100" height="50" as="geometry" />
        </mxCell>
      </root>
    </mxGraphModel>
  </diagram>
</mxfile>
